<svg xmlns="http://www.w3.org/2000/svg" xmlns:xlink="http://www.w3.org/1999/xlink" width="48" zoomAndPan="magnify" viewBox="0 0 36 36.000001" height="48" preserveAspectRatio="xMidYMid meet" version="1.0"><defs><clipPath id="77667d06fb"><path d="M 0.488281 0 L 35.511719 0 L 35.511719 35.027344 L 0.488281 35.027344 Z M 0.488281 0 " clip-rule="nonzero"/></clipPath></defs><g clip-path="url(#77667d06fb)"><path fill="#25c071" d="M 18 27.066406 C 15.464844 27.066406 13.035156 26.058594 11.246094 24.269531 C 9.453125 22.476562 8.445312 20.046875 8.445312 17.511719 C 8.445312 14.980469 9.453125 12.550781 11.246094 10.757812 C 13.035156 8.96875 15.464844 7.960938 18 7.960938 C 20.535156 7.960938 22.964844 8.96875 24.753906 10.757812 C 26.546875 12.550781 27.554688 14.980469 27.554688 17.511719 C 27.554688 20.046875 26.546875 22.476562 24.753906 24.269531 C 22.964844 26.058594 20.535156 27.066406 18 27.066406 Z M 18 23.882812 C 19.6875 23.882812 21.308594 23.210938 22.503906 22.015625 C 23.699219 20.824219 24.367188 19.203125 24.367188 17.511719 C 24.367188 15.824219 23.699219 14.203125 22.503906 13.011719 C 21.308594 11.816406 19.6875 11.144531 18 11.144531 C 16.3125 11.144531 14.691406 11.816406 13.496094 13.011719 C 12.300781 14.203125 11.632812 15.824219 11.632812 17.511719 C 11.632812 19.203125 12.300781 20.824219 13.496094 22.015625 C 14.691406 23.210938 16.3125 23.882812 18 23.882812 Z M 16.40625 1.59375 C 16.40625 0.710938 17.121094 0 18 0 C 18.878906 0 19.59375 0.710938 19.59375 1.59375 L 19.59375 3.183594 C 19.59375 4.0625 18.878906 4.777344 18 4.777344 C 17.121094 4.777344 16.40625 4.0625 16.40625 3.183594 Z M 16.40625 31.84375 C 16.40625 30.964844 17.121094 30.25 18 30.25 C 18.878906 30.25 19.59375 30.964844 19.59375 31.84375 L 19.59375 33.433594 C 19.59375 34.3125 18.878906 35.027344 18 35.027344 C 17.121094 35.027344 16.40625 34.3125 16.40625 33.433594 Z M 5.617188 7.382812 C 4.996094 6.757812 4.996094 5.75 5.617188 5.128906 C 6.238281 4.507812 7.246094 4.507812 7.867188 5.128906 L 8.992188 6.253906 C 9.613281 6.878906 9.613281 7.886719 8.992188 8.507812 C 8.371094 9.128906 7.363281 9.128906 6.742188 8.507812 Z M 27.007812 28.773438 C 26.386719 28.148438 26.386719 27.140625 27.007812 26.519531 C 27.628906 25.898438 28.636719 25.898438 29.257812 26.519531 L 30.382812 27.644531 C 31.003906 28.265625 31.003906 29.277344 30.382812 29.898438 C 29.761719 30.519531 28.753906 30.519531 28.132812 29.898438 Z M 28.132812 5.128906 C 28.753906 4.507812 29.761719 4.507812 30.382812 5.128906 C 31.003906 5.75 31.003906 6.757812 30.382812 7.382812 L 29.257812 8.507812 C 28.636719 9.128906 27.628906 9.128906 27.007812 8.507812 C 26.386719 7.886719 26.386719 6.878906 27.007812 6.253906 Z M 6.742188 26.519531 C 7.363281 25.898438 8.371094 25.898438 8.992188 26.519531 C 9.613281 27.140625 9.613281 28.148438 8.992188 28.773438 L 7.867188 29.898438 C 7.246094 30.519531 6.238281 30.519531 5.617188 29.898438 C 4.996094 29.277344 4.996094 28.265625 5.617188 27.644531 Z M 33.921875 15.921875 C 34.800781 15.921875 35.511719 16.632812 35.511719 17.511719 C 35.511719 18.394531 34.800781 19.105469 33.921875 19.105469 L 32.328125 19.105469 C 31.449219 19.105469 30.738281 18.394531 30.738281 17.511719 C 30.738281 16.632812 31.449219 15.921875 32.328125 15.921875 Z M 3.671875 15.921875 C 4.550781 15.921875 5.261719 16.632812 5.261719 17.511719 C 5.261719 18.394531 4.550781 19.105469 3.671875 19.105469 L 2.078125 19.105469 C 1.199219 19.105469 0.488281 18.394531 0.488281 17.511719 C 0.488281 16.632812 1.199219 15.921875 2.078125 15.921875 Z M 3.671875 15.921875 " fill-opacity="1" fill-rule="nonzero"/></g></svg>